<?xml version="1.0" encoding="utf-8"?>
<!-- Generator: Adobe Illustrator 16.0.0, SVG Export Plug-In . SVG Version: 6.00 Build 0)  -->
<!DOCTYPE svg PUBLIC "-//W3C//DTD SVG 1.1//EN" "http://www.w3.org/Graphics/SVG/1.1/DTD/svg11.dtd">
<svg version="1.1" id="Layer_1" xmlns="http://www.w3.org/2000/svg" xmlns:xlink="http://www.w3.org/1999/xlink" x="0px" y="0px"
	 width="64px" height="64px" fill="#FFFFFF" viewBox="0 0 64 64" enable-background="new 0 0 64 64" xml:space="preserve">
<path d="M32,7.626c-6.361,0-12.151,2.459-16.495,6.466c-4.41,3.595-7.308,8.528-7.803,14.147c-0.083,0.937-0.089,1.869-0.038,2.796
	C7.651,31.356,7.626,31.675,7.626,32C7.626,45.44,18.56,56.374,32,56.374c13.44,0,24.374-10.934,24.374-24.374
	S45.439,7.626,32,7.626z M54.367,32.253c-0.023,2.041-0.335,4.011-0.872,5.887c-3.138,2.454-7.064,4.202-11.469,4.943
	c0.217-1.817,0.371-3.817,0.429-5.968c4.527-0.857,8.44-3.002,11.2-5.989C54.002,31.642,54.242,32.037,54.367,32.253z
	 M53.729,27.854c-1.135-1.415-2.667-3.087-4.666-4.787c0.668-1.155,1.094-2.439,1.215-3.812c0.003-0.038,0.002-0.076,0.005-0.114
	c1.75,2.484,3.001,5.338,3.625,8.42C53.848,27.66,53.792,27.759,53.729,27.854z M42.478,35.074c-0.008-2.163-0.123-4.459-0.38-6.876
	c2.325-0.644,4.329-1.865,5.775-3.489c2.007,1.729,3.525,3.425,4.594,4.792C50.058,32.234,46.558,34.226,42.478,35.074z
	 M17.605,35.778c-3.772-3.772-5.81-8.387-5.906-13.158c0.491-1.058,1.055-2.075,1.699-3.036c0.722-0.246,1.935-0.631,3.493-1.028
	c-0.325,4.546,1.413,8.983,4.928,12.529c-1.359,1.741-2.613,3.486-3.728,5.135C17.933,36.069,17.76,35.933,17.605,35.778z
	 M37.036,16.285c-2.926-0.893-5.948-1.234-8.838-1.246c0.854-1.97,2.57-3.562,4.779-4.497
	C34.064,11.503,35.621,13.262,37.036,16.285z M40.498,19.833c2.225,1.091,4.159,2.334,5.819,3.605
	c-1.13,1.245-2.675,2.203-4.47,2.751C41.505,23.79,41.044,21.67,40.498,19.833z M27.626,17.258c0.006-0.065,0.019-0.128,0.027-0.193
	c2.828-0.035,5.788,0.245,8.624,1.081c-2.179,1.186-4.487,2.728-6.78,4.699C28.114,21.194,27.451,19.239,27.626,17.258z
	 M38.258,19.377c0.664,1.998,1.228,4.402,1.623,7.229c-0.861,0.108-1.755,0.138-2.675,0.056c-2.373-0.209-4.558-1.067-6.276-2.433
	C33.415,22.116,35.935,20.543,38.258,19.377z M26.062,15.09c-2.404,0.119-4.665,0.438-6.65,0.826
	c0.302-0.999,0.72-1.952,1.243-2.855c2.636-1.384,5.635-2.33,8.852-2.767C27.879,11.557,26.673,13.202,26.062,15.09z M25.632,17.14
	c-0.207,2.521,0.635,4.984,2.378,7.038c-1.737,1.646-3.39,3.462-4.927,5.329c-3.049-3.159-4.544-7.061-4.193-11.029
	c0.012-0.135,0.045-0.264,0.062-0.398C20.909,17.664,23.188,17.297,25.632,17.14z M29.429,25.591c2.062,1.73,4.721,2.81,7.602,3.064
	c0.436,0.039,0.866,0.057,1.293,0.057c0.614,0,1.212-0.049,1.801-0.123c0.247,2.387,0.353,4.664,0.347,6.801
	c-0.802,0.089-1.619,0.143-2.453,0.143c-0.657,0-1.325-0.03-1.985-0.088c-4.359-0.385-8.374-1.992-11.483-4.567
	C26.076,29.013,27.718,27.21,29.429,25.591z M48.287,19.081c-0.085,0.964-0.372,1.872-0.811,2.708
	c-1.754-1.331-3.794-2.632-6.15-3.779c3.095-1.214,5.518-1.681,6.48-1.829c0.067,0.067,0.127,0.141,0.194,0.209
	C48.262,17.252,48.368,18.156,48.287,19.081z M39.37,16.634c-1.283-3.105-2.762-5.188-4.028-6.56
	c0.257,0.016,0.515,0.028,0.771,0.051c0.142,0.013,0.277,0.04,0.418,0.054c-0.17-0.053-0.333-0.118-0.502-0.172
	c3.687,0.674,7.063,2.242,9.883,4.489C44.349,14.834,42.049,15.474,39.37,16.634z M17.582,15.004
	c-0.149,0.456-0.271,0.921-0.376,1.392c-0.573,0.138-1.118,0.277-1.612,0.414c0.382-0.413,0.785-0.807,1.197-1.189
	C17.049,15.41,17.312,15.205,17.582,15.004z M10.225,26.87c0.913,3.75,2.935,7.29,5.966,10.322c0.25,0.25,0.524,0.474,0.784,0.713
	c-1.032,1.59-1.91,3.034-2.616,4.237c-2.838-3.316-4.455-7.166-4.695-11.154C9.728,29.579,9.911,28.201,10.225,26.87z
	 M18.521,39.231c4.37,3.444,9.879,5.607,15.844,6.133c0.935,0.083,1.88,0.124,2.811,0.124c0.839,0,1.666-0.039,2.483-0.104
	c-0.37,2.268-0.807,4.149-1.195,5.58c-1.088,0.125-2.196,0.2-3.329,0.2c-0.873,0-1.759-0.039-2.635-0.116
	c-6.494-0.574-12.407-3.198-16.704-7.384C16.5,42.455,17.427,40.924,18.521,39.231z M37.175,43.488
	c-0.873,0-1.759-0.039-2.635-0.116c-5.637-0.498-10.833-2.546-14.918-5.812c1.104-1.642,2.337-3.381,3.683-5.117
	c3.417,2.818,7.803,4.576,12.553,4.995c0.718,0.063,1.445,0.096,2.161,0.096c0.821,0,1.626-0.048,2.419-0.128
	c-0.073,2.151-0.248,4.141-0.48,5.942C39.044,43.434,38.119,43.488,37.175,43.488z M12.715,43.297
	c0.193,0.229,0.387,0.459,0.591,0.684c-0.027,0.049-0.062,0.108-0.087,0.155C13.042,43.863,12.881,43.578,12.715,43.297z M32,54.374
	c-7.071,0-13.381-3.301-17.484-8.438c0.074-0.137,0.17-0.31,0.27-0.491c4.591,4.298,10.772,6.999,17.539,7.596
	c0.935,0.083,1.88,0.124,2.811,0.124c0.917,0,1.82-0.043,2.71-0.12c-0.079,0.239-0.15,0.45-0.207,0.608
	C35.836,54.123,33.947,54.374,32,54.374z M40.04,52.771c0.124-0.02,0.248-0.036,0.371-0.058c-0.137,0.056-0.268,0.121-0.406,0.174
	C40.016,52.852,40.029,52.808,40.04,52.771z M47.047,48.534c-1.976,0.942-4.126,1.662-6.412,2.105
	c0.379-1.485,0.778-3.325,1.11-5.485c3.891-0.574,7.458-1.884,10.529-3.743C51.011,44.121,49.232,46.543,47.047,48.534z"/>
</svg>
